<?xml version="1.0" standalone="no"?>
<!DOCTYPE svg PUBLIC "-//W3C//DTD SVG 20010904//EN"
 "http://www.w3.org/TR/2001/REC-SVG-20010904/DTD/svg10.dtd">
<svg version="1.0" xmlns="http://www.w3.org/2000/svg"
 width="449.000000pt" height="449.000000pt" viewBox="0 0 449.000000 449.000000"
 preserveAspectRatio="xMidYMid meet">
<metadata>
Created by potrace 1.11, written by Peter Selinger 2001-2013
</metadata>
<g transform="translate(0.000000,449.000000) scale(0.100000,-0.100000)"
fill="#000000" stroke="none">
<path d="M2099 4446 c-2 -2 -42 -6 -87 -10 -46 -3 -103 -11 -125 -16 -23 -5
-58 -12 -77 -15 -148 -26 -363 -100 -535 -185 -507 -249 -896 -678 -1094
-1205 -65 -175 -111 -364 -128 -530 -15 -149 -9 -474 11 -571 2 -12 7 -39 11
-60 4 -22 8 -43 9 -49 1 -5 8 -37 15 -70 24 -116 102 -331 171 -470 178 -362
438 -654 781 -880 244 -161 604 -296 875 -331 23 -2 53 -7 65 -10 43 -10 402
-12 474 -3 128 16 149 19 230 35 404 79 805 294 1105 594 349 347 545 730 634
1235 22 122 29 445 13 575 -13 110 -16 124 -38 226 -34 159 -83 309 -149 449
-20 44 -37 82 -37 85 -2 21 -188 312 -226 352 -7 7 -25 31 -42 53 -46 61 -242
255 -320 317 -120 94 -274 192 -403 257 -116 58 -376 153 -451 166 -19 3 -37
8 -40 10 -4 2 -26 6 -51 10 -25 4 -47 8 -50 10 -3 2 -33 7 -65 10 -33 4 -64 9
-68 12 -10 6 -401 15 -408 9z m302 -880 c76 -10 230 -53 301 -85 282 -126 447
-357 472 -658 l5 -63 -129 0 -129 0 -6 38 c-27 159 -75 261 -165 353 -74 74
-166 130 -278 167 -67 22 -98 26 -232 28 -103 2 -179 -1 -225 -10 -271 -54
-425 -212 -440 -450 -10 -166 57 -293 190 -359 71 -35 142 -56 555 -162 408
-105 450 -118 564 -176 169 -85 258 -167 319 -291 49 -102 59 -147 60 -273 0
-168 -32 -284 -111 -403 -120 -182 -344 -306 -607 -337 -27 -3 -65 -8 -83 -11
-47 -7 -314 -6 -392 1 -220 22 -428 98 -557 202 -189 152 -278 342 -282 601
l-2 102 124 0 125 0 12 -97 c43 -342 218 -515 587 -578 402 -69 760 59 888
317 34 71 36 80 36 169 -1 52 -4 105 -9 119 -23 77 -91 161 -175 219 -103 70
-181 96 -689 225 -344 87 -396 104 -499 157 -145 75 -248 193 -292 334 -28 91
-30 277 -3 374 60 220 187 368 400 466 82 38 212 75 301 85 66 7 293 5 366 -4z"/>
</g>
</svg>
